<svg width="293" height="147" viewBox="0 0 293 147" fill="none" xmlns="http://www.w3.org/2000/svg">
<path fill-rule="evenodd" clip-rule="evenodd" d="M86.4269 84.7212C87.4044 83.2582 88.161 81.6706 88.6812 80.0095H94.3609C93.7102 82.7615 92.5714 85.3904 90.9839 87.7662C88.3652 91.6854 84.6431 94.74 80.2883 96.5438C75.9335 98.3476 71.1417 98.8196 66.5186 97.9C61.8956 96.9805 57.6491 94.7106 54.3161 91.3776C50.9831 88.0446 48.7133 83.7981 47.7937 79.1751C46.8742 74.5521 47.3461 69.7602 49.1499 65.4054C50.9537 61.0507 54.0084 57.3286 57.9276 54.7098C60.7427 52.8288 63.913 51.5778 67.2227 51.0222C68.5207 50.8043 69.8402 50.6934 71.1681 50.6934V56.1741C67.5385 56.1741 63.9904 57.2504 60.9725 59.2669C57.9546 61.2834 55.6024 64.1495 54.2135 67.5028C52.8245 70.8561 52.4611 74.546 53.1692 78.1059C53.8773 81.6657 55.6251 84.9357 58.1916 87.5022C60.7581 90.0687 64.028 91.8165 67.5879 92.5246C71.1477 93.2327 74.8376 92.8693 78.1909 91.4803C81.5442 90.0913 84.4104 87.7391 86.4269 84.7212ZM99.8449 74.5255H94.361V80.0094H99.8449V74.5255Z" fill="black"/>
<path fill-rule="evenodd" clip-rule="evenodd" d="M90.9257 49.5923C90.9257 49.5923 94.5605 61.2657 85.7483 70.9508C83.2828 73.6606 80.7214 74.2406 78.181 74.8159C75.8701 75.3392 73.5765 75.8586 71.3883 77.9737C69.2991 79.9931 68.4947 82.5559 68.4947 82.5559C68.4947 82.5559 66.5226 75.6838 72.659 72.1402C74.313 71.1851 75.7451 70.9031 77.151 70.6263C79.1101 70.2405 81.0184 69.8648 83.4051 67.6917C85.905 65.4156 86.9888 61.9794 86.9888 61.9794C86.9888 61.9794 86.1094 64.4855 79.9062 66.3414C77.9255 66.934 76.2019 67.1154 74.573 67.2869C72.0153 67.556 69.6912 67.8006 66.9721 69.574C63.7347 71.6853 61.6643 75.7484 62.3996 80.438C62.9536 83.9719 66.0265 86.3653 66.0265 86.3653C66.0265 86.3653 63.0033 85.3395 60.5661 81.9299C58.6742 79.283 56.3626 72.8161 60.8665 66.7857C63.5214 63.2309 67.3282 61.1798 76.7741 61.1798C86.5916 61.1798 90.9257 49.5918 90.9257 49.5918V49.5923ZM71.5862 87.4454C71.5862 87.4454 72.4113 84.4038 75.4634 82.2888C76.4592 81.5988 77.3264 81.2827 78.239 80.95C79.0045 80.671 79.8019 80.3803 80.7339 79.8475C83.5449 78.2408 83.977 75.8927 83.977 75.8927C83.977 75.8927 83.9512 79.5679 80.7339 83.1979C76.8661 87.5619 71.5862 87.4454 71.5862 87.4454Z" fill="url(#paint0_linear_231_25)"/>
<path fill-rule="evenodd" clip-rule="evenodd" d="M157.809 48.6035V89.4867H152.3V48.6035H157.809ZM209.071 48.8935V55.2724H202.924V48.8935H209.071ZM203.213 99.3315V93.8591H208.723V60.4915H203.214V93.8586H197.882V99.345L203.213 99.3315ZM244.728 89.4867H239.219V85.1374C238.02 86.6838 236.571 87.9018 234.87 88.7909C233.169 89.6415 231.352 90.0666 229.419 90.0666C226.867 90.0666 224.547 89.4285 222.46 88.1528C220.372 86.8386 218.729 85.0408 217.531 82.7597C216.332 80.4789 215.733 77.8886 215.733 74.9891C215.733 72.0896 216.332 69.4993 217.531 67.2186C218.729 64.9375 220.372 63.1592 222.46 61.8831C224.547 60.5689 226.867 59.9116 229.419 59.9116C231.429 59.9116 233.304 60.3756 235.044 61.3032C236.783 62.2312 238.272 63.5262 239.509 65.1889V60.4915H244.728V89.4867ZM230.346 84.9634C232.047 84.9634 233.594 84.5383 234.986 83.6877C236.377 82.8371 237.46 81.658 238.233 80.1501C239.006 78.6037 239.393 76.8836 239.393 74.9891C239.393 73.0946 239.006 71.3938 238.233 69.8859C237.46 68.3395 236.377 67.1412 234.986 66.2906C233.594 65.44 232.047 65.0148 230.346 65.0148C228.645 65.0148 227.118 65.44 225.765 66.2906C224.412 67.1412 223.349 68.3395 222.576 69.8859C221.803 71.3938 221.416 73.0946 221.416 74.9891C221.416 76.8836 221.803 78.6037 222.576 80.1501C223.349 81.658 224.412 82.8371 225.765 83.6877C227.118 84.5383 228.645 84.9634 230.346 84.9634ZM187.957 89.4867H193.466V60.4915H188.247V65.1889C187.01 63.5262 185.522 62.2312 183.782 61.3032C182.042 60.3756 180.167 59.9116 178.157 59.9116C175.605 59.9116 173.286 60.5689 171.198 61.8831C169.11 63.1592 167.467 64.9375 166.269 67.2186C165.07 69.4993 164.471 72.0896 164.471 74.9891C164.471 77.8886 165.07 80.4789 166.269 82.7597C167.467 85.0408 169.11 86.8386 171.198 88.1528C173.286 89.4285 175.605 90.0666 178.157 90.0666C180.09 90.0666 181.907 89.6415 183.608 88.7909C185.309 87.9018 186.759 86.6838 187.957 85.1374V89.4867ZM183.724 83.6877C182.332 84.5383 180.786 84.9634 179.085 84.9634C177.384 84.9634 175.857 84.5383 174.504 83.6877C173.15 82.8371 172.087 81.658 171.314 80.1501C170.541 78.6037 170.154 76.8836 170.154 74.9891C170.154 73.0946 170.541 71.3938 171.314 69.8859C172.087 68.3395 173.15 67.1412 174.504 66.2906C175.857 65.44 177.384 65.0148 179.085 65.0148C180.786 65.0148 182.332 65.44 183.724 66.2906C185.116 67.1412 186.198 68.3395 186.971 69.8859C187.745 71.3938 188.131 73.0946 188.131 74.9891C188.131 76.8836 187.745 78.6037 186.971 80.1501C186.198 81.658 185.116 82.8371 183.724 83.6877ZM138.891 61.8831C136.803 60.5689 134.483 59.9116 131.932 59.9116C129.922 59.9116 128.047 60.3756 126.307 61.3032C124.567 62.2312 123.079 63.5262 121.842 65.1889V60.4915H116.622V99.345H122.132V85.1374C123.33 86.6838 124.78 87.9018 126.481 88.7909C128.182 89.6415 129.999 90.0666 131.932 90.0666C134.483 90.0666 136.803 89.4285 138.891 88.1528C140.978 86.8386 142.621 85.0408 143.82 82.7597C145.018 80.4789 145.618 77.8886 145.618 74.9891C145.618 72.0896 145.018 69.4993 143.82 67.2186C142.621 64.9375 140.978 63.1592 138.891 61.8831ZM135.585 83.6877C134.232 84.5383 132.705 84.9634 131.004 84.9634C129.303 84.9634 127.757 84.5383 126.365 83.6877C124.973 82.8371 123.891 81.658 123.117 80.1501C122.344 78.6037 121.958 76.8836 121.958 74.9891C121.958 73.0946 122.344 71.3938 123.117 69.8859C123.891 68.3395 124.973 67.1412 126.365 66.2906C127.757 65.44 129.303 65.0148 131.004 65.0148C132.705 65.0148 134.232 65.44 135.585 66.2906C136.938 67.1412 138.002 68.3395 138.775 69.8859C139.548 71.3938 139.935 73.0946 139.935 74.9891C139.935 76.8836 139.548 78.6037 138.775 80.1501C138.002 81.658 136.938 82.8371 135.585 83.6877Z" fill="black"/>
<defs>
<linearGradient id="paint0_linear_231_25" x1="67.4905" y1="86.6563" x2="89.4481" y2="56.8678" gradientUnits="userSpaceOnUse">
<stop stop-color="#FBB040"/>
<stop offset="1" stop-color="#FA0C61"/>
</linearGradient>
</defs>
</svg>
